<?xml version="1.0" encoding="UTF-8"?>
<svg id="Layer_1" data-name="Layer 1" xmlns="http://www.w3.org/2000/svg" xmlns:xlink="http://www.w3.org/1999/xlink" viewBox="0 0 131.16 116.2">
  <defs>
    <style>
      .cls-1 {
        mask: url(#mask-2);
      }

      .cls-2, .cls-3, .cls-4, .cls-5, .cls-6, .cls-7 {
        stroke-width: 0px;
      }

      .cls-3 {
        fill: #f4f1e8;
      }

      .cls-4 {
        fill: #fff;
        fill-rule: evenodd;
      }

      .cls-8 {
        stroke-width: .8px;
      }

      .cls-8, .cls-9, .cls-10 {
        fill: none;
        stroke: #00507d;
        stroke-miterlimit: 20;
      }

      .cls-8, .cls-10 {
        stroke-linecap: round;
      }

      .cls-5 {
        fill: #086f24;
      }

      .cls-11 {
        mask: url(#mask-1);
      }

      .cls-12 {
        mask: url(#mask);
      }

      .cls-6 {
        fill: #00507d;
      }

      .cls-7 {
        fill: #a61e1e;
      }

      .cls-10 {
        stroke-width: 2px;
      }
    </style>
    <mask id="mask" x="4.69" y="5.9" width="126.48" height="82.76" maskUnits="userSpaceOnUse">
      <g id="StrokeMask">
        <rect class="cls-2" x="5.38" y="6.4" width="124.22" height="80.91"/>
        <path id="Fill" class="cls-4" d="m129.6,37.91s-15.89-1.38-25.41,4.93c-9.52,6.31-8.47,9.54-16.66,14.1-7.38,4.11-14.17,3.7-14.17,3.7,0,0-11.62-2.18-29.54,6.08-12.93,5.96-30.22,20.59-30.22,20.59,0,0,4.66-20.59,1.09-44.65C11.8,23.17,5.38,7.66,5.38,7.66c0,0,12.8-2.83,31.06,0,18.13,2.81,30.15,13.34,30.15,13.34,0,0,5.42,4.51,16.67,4.49,10.73-.03,10.27-1.73,21.44-.29,11.17,1.44,24.91,12.71,24.91,12.71Z"/>
      </g>
    </mask>
    <mask id="mask-1" x="4.69" y="5.92" width="63.37" height="40.67" maskUnits="userSpaceOnUse">
      <g id="StrokeMask_2" data-name="StrokeMask 2">
        <rect class="cls-2" x="5.38" y="6.42" width="61.54" height="38.93"/>
        <path id="Fill_2" data-name="Fill 2" class="cls-4" d="m66.92,21.27s-18.85,2.34-33.82,10.42c-12.68,6.85-18.03,13.67-18.03,13.67,0,0-1.52-11.03-4-20.2C8.6,15.98,5.38,7.85,5.38,7.85c0,0,15.42-3.08,31.06-.19,19.56,3.61,30.49,13.61,30.49,13.61Z"/>
      </g>
    </mask>
    <mask id="mask-2" x="12.78" y="43.53" width="61.81" height="45.19" maskUnits="userSpaceOnUse">
      <g id="StrokeMask_3" data-name="StrokeMask 3">
        <rect class="cls-2" x="13.61" y="44.03" width="59.75" height="43.26"/>
        <path id="Fill_3" data-name="Fill 3" class="cls-4" d="m73.36,60.64s-14.77.2-29.88,6.96c-16.24,7.27-29.88,19.69-29.88,19.69,0,0,2.52-11.45,2.76-22.07.25-10.62-1.39-20.62-1.39-20.62,0,0,8.63-1.69,24.77.76,20.94,3.18,33.61,15.28,33.61,15.28Z"/>
      </g>
    </mask>
  </defs>
  <g id="Layer-1">
    <g>
      <g class="cls-12">
        <g>
          <path id="Fill-2" data-name="Fill" class="cls-3" d="m129.6,37.91s-15.89-1.38-25.41,4.93c-9.52,6.31-8.47,9.54-16.66,14.1-7.38,4.11-14.17,3.7-14.17,3.7,0,0-11.62-2.18-29.54,6.08-12.93,5.96-30.22,20.59-30.22,20.59,0,0,4.66-20.59,1.09-44.65C11.8,23.17,5.38,7.66,5.38,7.66c0,0,12.8-2.83,31.06,0,18.13,2.81,30.15,13.34,30.15,13.34,0,0,5.42,4.51,16.67,4.49,10.73-.03,10.27-1.73,21.44-.29,11.17,1.44,24.91,12.71,24.91,12.71Z"/>
          <path id="Fill-3" data-name="Fill" class="cls-9" d="m129.6,37.91s-15.89-1.38-25.41,4.93c-9.52,6.31-8.47,9.54-16.66,14.1-7.38,4.11-14.17,3.7-14.17,3.7,0,0-11.62-2.18-29.54,6.08-12.93,5.96-30.22,20.59-30.22,20.59,0,0,4.66-20.59,1.09-44.65C11.8,23.17,5.38,7.66,5.38,7.66c0,0,12.8-2.83,31.06,0,18.13,2.81,30.15,13.34,30.15,13.34,0,0,5.42,4.51,16.67,4.49,10.73-.03,10.27-1.73,21.44-.29,11.17,1.44,24.91,12.71,24.91,12.71Z"/>
        </g>
      </g>
      <g class="cls-11">
        <g>
          <path id="Fill_2-2" data-name="Fill 2" class="cls-5" d="m66.92,21.27s-18.85,2.34-33.82,10.42c-12.68,6.85-18.03,13.67-18.03,13.67,0,0-1.52-11.03-4-20.2C8.6,15.98,5.38,7.85,5.38,7.85c0,0,15.42-3.08,31.06-.19,19.56,3.61,30.49,13.61,30.49,13.61Z"/>
          <path id="Fill_2-3" data-name="Fill 2" class="cls-9" d="m66.92,21.27s-18.85,2.34-33.82,10.42c-12.68,6.85-18.03,13.67-18.03,13.67,0,0-1.52-11.03-4-20.2C8.6,15.98,5.38,7.85,5.38,7.85c0,0,15.42-3.08,31.06-.19,19.56,3.61,30.49,13.61,30.49,13.61Z"/>
        </g>
      </g>
      <g class="cls-1">
        <g>
          <path id="Fill_3-2" data-name="Fill 3" class="cls-7" d="m73.36,60.64s-14.77.2-29.88,6.96c-16.24,7.27-29.88,19.69-29.88,19.69,0,0,2.52-11.45,2.76-22.07.25-10.62-1.39-20.62-1.39-20.62,0,0,8.63-1.69,24.77.76,20.94,3.18,33.61,15.28,33.61,15.28Z"/>
          <path id="Fill_3-3" data-name="Fill 3" class="cls-9" d="m73.36,60.64s-14.77.2-29.88,6.96c-16.24,7.27-29.88,19.69-29.88,19.69,0,0,2.52-11.45,2.76-22.07.25-10.62-1.39-20.62-1.39-20.62,0,0,8.63-1.69,24.77.76,20.94,3.18,33.61,15.28,33.61,15.28Z"/>
        </g>
      </g>
      <path class="cls-6" d="m70.65,46.85c-1.49.02-2.91-.26-4.26-.83-1.35-.57-2.47-1.38-3.39-2.43-.91-1.05-1.48-2.26-1.71-3.62-.22-1.3-.06-2.51.47-3.65.53-1.14,1.41-2.05,2.63-2.74,1.22-.69,2.7-1.05,4.44-1.07,1.26-.01,2.63.21,4.1.67.31.12.51.33.6.61.26.84.46,1.69.6,2.54.02.11,0,.2-.06.27-.06.06-.14.1-.24.1-.23,0-.41-.12-.54-.35-.19-.41-.37-.76-.57-1.04-.19-.29-.43-.54-.72-.76-.81-.64-1.88-.95-3.23-.94-.97.01-1.78.28-2.43.81-.65.53-1.11,1.23-1.37,2.1-.26.87-.3,1.81-.13,2.81.33,1.95,1.02,3.51,2.08,4.69,1.06,1.18,2.38,1.76,3.96,1.74,1.06-.01,1.88-.24,2.48-.68.59-.44,1.04-1.13,1.35-2.08.04-.11.1-.2.17-.27.08-.06.16-.1.24-.1.09,0,.17.03.24.09.08.06.12.15.14.26.11.63.08,1.44-.07,2.42-.03.17-.08.3-.15.39-.07.09-.18.18-.33.25-1.12.52-2.55.79-4.31.81Z"/>
      <path class="cls-8" d="m11.04,111.17s4.52-31.67,2.57-58.74S3.24,2.9,3.24,2.9"/>
      <path class="cls-10" d="m11.08,115.2L3.24,2.9"/>
      <path class="cls-6" d="m0,2.9C0,1.3,1.45,0,3.24,0s3.24,1.3,3.24,2.9-1.45,2.9-3.24,2.9S0,4.51,0,2.9Z"/>
    </g>
  </g>
</svg>